<svg width="32" height="32" viewBox="0 0 32 32" fill="none" xmlns="http://www.w3.org/2000/svg">
<path d="M29 14.3447C29 8.63142 24.3062 3.99988 18.5161 3.99988C13.1176 3.99988 8.67214 8.02614 8.09553 13.2015C8.48402 13.1369 8.88318 13.1033 9.29031 13.1033C13.2276 13.1033 16.4193 16.2462 16.4193 20.123C16.4193 21.6172 15.9453 23.0023 15.1371 24.1405C16.1973 24.4964 17.3339 24.6895 18.5161 24.6895C20.3201 24.6895 26.0645 26.3447 27.3226 27.1723C26.4839 25.5171 24.3935 22.9274 24.8064 22.6213C27.3529 20.734 29 17.7292 29 14.3447Z" fill="#444444"/>
<path d="M3 20.2117C3 22.2665 3.98828 24.0909 5.51613 25.2368C5.76388 25.4226 4.50968 26.995 4.00645 27.9999C4.76129 27.4974 8.20796 26.4925 9.29033 26.4925C12.7644 26.4925 15.5807 23.6805 15.5807 20.2117C15.5807 16.7429 12.7644 13.9309 9.29033 13.9309C5.81628 13.9309 3 16.7429 3 20.2117Z" fill="#444444"/>
</svg>
