<svg width="32" height="32" viewBox="0 0 32 32" fill="none" xmlns="http://www.w3.org/2000/svg">
<path d="M16.5996 18.7917L17.0392 19.2361L16.5996 19.6806L16.16 19.2361L16.5996 18.7917Z" fill="#444444"/>
<path d="M15.9196 17.4167L16.3592 17.8611L15.9196 18.3056L15.48 17.8611L15.9196 17.4167Z" fill="#444444"/>
<path d="M14.8996 20.125L15.6792 20.9132L14.8996 21.7014L14.12 20.9132L14.8996 20.125Z" fill="#444444"/>
<path d="M23.0004 21.4994V25.9991H24.7505C24.8885 25.9991 25 26.1116 25 26.2496V26.7495C25 26.8875 24.8885 27 24.7505 27H8.24951C8.1115 26.9995 8 26.887 8 26.749V26.2491C8 26.1111 8.1115 25.9986 8.24951 25.9986H9.99956V21.4994C9.99956 19.0375 11.4846 16.9247 13.6052 15.9997C11.4846 15.0743 9.99956 12.962 9.99956 10.5001V6.00043H8.24951C8.1115 6.00043 8 5.88794 8 5.75045V5.25048C8 5.11249 8.1115 5 8.24951 5H24.7505C24.8885 5 25 5.11249 25 5.25048V5.75045C25 5.88794 24.8885 6.00043 24.7505 6.00043H23.0004V10.5001C23.0004 12.962 21.5154 15.0748 19.3948 15.9997C21.5159 16.9252 23.0004 19.0375 23.0004 21.4994ZM17.0003 16.4997H17.5003C17.2243 16.4997 17.0003 16.2757 17.0003 15.9997C17.0003 15.7238 17.2243 15.4998 17.5003 15.4998H17.0003C19.7618 15.4998 21.9999 13.2609 21.9999 10.4996V6.00043L18.2 9.125L16.252 12.5625L14.12 10.1562L11.0001 10.5001C11.0001 13.2614 13.2382 15.5003 15.9997 15.5003H15.4997C15.7762 15.5003 15.9997 15.7243 15.9997 16.0003C15.9997 16.2762 15.7767 16.5002 15.4997 16.5002H15.9997C13.2382 16.5002 11.0001 18.7391 11.0001 21.5004V25.9991L14.12 22.1875L16.252 23.2187L18.2 21.1562L21.9999 25.9991V21.4994C21.9999 18.7386 19.7618 16.4997 17.0003 16.4997Z" fill="#444444"/>
</svg>
