<svg width="42" height="42" viewBox="0 0 42 42" fill="none" xmlns="http://www.w3.org/2000/svg">
<path d="M38.2898 26.1444C37.5507 27.2408 36.7262 28.2191 35.815 29.0794C34.9038 29.9398 33.9632 30.6636 32.992 31.2469C32.0208 31.8315 31.1082 32.2159 30.2557 32.4002C33.1975 29.2107 34.3995 26.3817 33.8578 23.9121C33.4376 21.9952 31.4564 19.6156 27.9143 16.7734C28.3853 15.7872 28.7802 14.9268 29.1017 14.1937C29.4219 13.4606 29.666 12.8124 29.8341 12.2477C30.0022 11.6843 30.109 11.1925 30.1557 10.7735C30.201 10.356 30.181 9.95164 30.0956 9.56058C29.8248 8.3264 28.7055 7.92075 26.7376 8.34628C26.0159 8.50271 25.3155 8.87522 24.6377 9.46381C23.96 10.0537 23.3903 10.7895 22.9314 11.671C22.4724 12.5539 22.1509 13.5587 21.9695 14.6869C21.7867 15.8163 21.8321 16.9975 22.1016 18.2316C22.2016 18.6877 22.343 19.0986 22.5271 19.4672C20.9622 23.0464 18.6582 26.7025 15.6124 30.4342C13.8914 32.5434 12.0329 33.9737 11.2925 34.508C10.5507 35.0435 9.88499 35.3736 9.29397 35.5022C8.90041 35.587 8.67494 35.5009 8.61757 35.2397C8.64959 35.2331 8.66293 35.2132 8.65626 35.1801C8.63492 35.082 8.63358 34.9985 8.65226 34.9255L11.51 21.3907L13.822 20.8909L14.481 17.7876L12.169 18.2873L15.9939 0L7.53293 1.83072L3.60927 20.1406L1.44533 20.6085L0.786269 23.7119L2.99958 23.2333L0.141887 36.7682C0.0378258 37.2335 -0.010202 37.6869 0.00180511 38.1257C0.0124781 38.5658 0.049833 38.9317 0.113871 39.2246C0.334001 40.2321 0.851642 40.9877 1.66679 41.4928C2.48061 41.9979 3.46252 42.1251 4.6112 41.8772C5.956 41.5869 7.37417 41.0076 8.86839 40.1393C9.53145 39.7536 16.5089 34.7625 17.4041 33.238L17.4361 33.3838C18.2339 37.024 21.2064 38.2861 26.3561 37.1725C28.0611 36.804 29.7301 36.23 31.363 35.4505C32.996 34.6723 34.5022 33.7497 35.8844 32.6852C37.2652 31.6207 38.4873 30.421 39.5519 29.0834C40.6152 27.7472 41.4317 26.3367 42 24.8519L39.9801 22.6858C39.5919 23.8961 39.0276 25.0481 38.2898 26.1444ZM25.9332 28.8938C25.4742 31.0348 24.3109 32.3087 22.4418 32.7117C21.8187 32.8469 21.3865 32.3617 21.1437 31.2561C21.0796 30.9632 21.0396 30.6662 21.0249 30.3627C21.0102 30.0591 20.9996 29.7383 20.9942 29.3989C21.7734 27.9367 22.4658 26.6734 23.0741 25.6049C23.6812 24.5378 24.1961 23.635 24.619 22.8966C25.2541 23.4401 25.6957 24.2806 25.9438 25.418C26.208 26.6217 26.204 27.7803 25.9332 28.8938ZM25.8158 14.0108C25.7544 13.8888 25.7117 13.7695 25.6863 13.6555C25.661 13.5415 25.6383 13.4368 25.617 13.3387C25.3968 12.3312 25.6957 11.7386 26.5162 11.561C26.7777 11.504 26.9271 11.557 26.9631 11.7201C26.9978 11.8831 26.6149 12.6467 25.8158 14.0108Z" fill="white"/>
</svg>
