<svg width="240" height="392" viewBox="0 0 240 392" fill="none" xmlns="http://www.w3.org/2000/svg">
<path opacity="0.02" d="M387.456 230.802C379.977 241.948 371.634 251.894 362.414 260.641C353.193 269.388 343.676 276.746 333.848 282.676C324.02 288.62 314.786 292.528 306.159 294.402C335.927 261.975 348.09 233.214 342.609 208.106C338.357 188.618 318.309 164.426 282.466 135.53C287.232 125.503 291.228 116.756 294.481 109.303C297.721 101.85 300.192 95.2593 301.893 89.5179C303.594 83.79 304.674 78.7899 305.147 74.5311C305.606 70.2857 305.403 66.175 304.539 62.1992C301.799 49.6517 290.472 45.5276 270.559 49.8539C263.256 51.4442 256.168 55.2314 249.31 61.2154C242.452 67.2128 236.688 74.6928 232.044 83.6553C227.4 92.6312 224.146 102.847 222.31 114.316C220.461 125.799 220.92 137.808 223.647 150.355C224.659 154.991 226.09 159.169 227.953 162.916C212.118 199.305 188.803 236.476 157.982 274.415C140.567 295.857 121.762 310.399 114.269 315.831C106.763 321.276 100.027 324.632 94.0462 325.939C90.0636 326.802 87.7821 325.925 87.2016 323.27C87.5256 323.203 87.6606 323.001 87.5931 322.664C87.3771 321.667 87.3636 320.818 87.5526 320.076L116.47 182.472L139.865 177.391L146.534 145.84L123.139 150.921L161.843 -35L76.2261 -16.3877L36.5224 169.763L14.6253 174.52L7.95629 206.071L30.3529 201.205L1.43577 338.81C0.382761 343.54 -0.103235 348.15 0.018266 352.611C0.126266 357.085 0.504263 360.805 1.15227 363.784C3.37978 374.026 8.6178 381.709 16.8663 386.843C25.1014 391.978 35.0374 393.272 46.661 390.752C60.269 387.8 74.6196 381.911 89.7396 373.083C96.4492 369.161 167.054 318.419 176.113 302.92L176.437 304.402C184.51 341.411 214.588 354.242 266.698 342.921C283.951 339.174 300.84 333.338 317.364 325.413C333.888 317.502 349.13 308.122 363.116 297.299C377.088 286.477 389.454 274.28 400.227 260.681C410.987 247.096 419.249 232.756 425 217.661L404.561 195.639C400.632 207.944 394.922 219.656 387.456 230.802ZM262.419 258.754C257.775 280.52 246.003 293.472 227.089 297.569C220.785 298.944 216.411 294.011 213.954 282.771C213.306 279.792 212.901 276.773 212.752 273.687C212.604 270.601 212.496 267.339 212.442 263.889C220.326 249.023 227.332 236.179 233.488 225.316C239.631 214.467 244.842 205.289 249.121 197.782C255.547 203.308 260.016 211.853 262.527 223.416C265.2 235.654 265.159 247.433 262.419 258.754ZM261.231 107.443C260.61 106.203 260.178 104.99 259.921 103.831C259.665 102.672 259.435 101.607 259.219 100.61C256.992 90.367 260.016 84.3426 268.318 82.5366C270.964 81.9571 272.476 82.4962 272.841 84.1539C273.192 85.8117 269.317 93.5746 261.231 107.443Z" fill="white"/>
</svg>
