<svg width="32" height="32" viewBox="0 0 32 32" fill="none" xmlns="http://www.w3.org/2000/svg">
<path fill-rule="evenodd" clip-rule="evenodd" d="M23.7 26.9999H20.4006C18.5779 26.9999 17.1005 25.5226 17.1005 23.6999V20.3999C17.1005 18.5772 18.5779 17.1004 20.4006 17.1004H23.7C25.5227 17.1004 27 18.5772 27 20.3999V23.6999C27 25.522 25.5227 26.9999 23.7 26.9999ZM23.1506 13.2493H22.0506C20.2279 13.2493 18.7505 11.772 18.7505 9.94933V8.84933C18.75 7.02773 20.2278 5.54988 22.05 5.54988H23.15C24.9727 5.54988 26.45 7.02718 26.45 8.84933V9.94933C26.4505 11.772 24.9727 13.2493 23.1506 13.2493ZM25.3506 8.84933C25.3506 7.63438 24.3655 6.64988 23.1506 6.64988H22.0506C20.8356 6.64988 19.8506 7.63383 19.8506 8.84933V9.94933C19.8506 11.1643 20.8356 8.62933 22.0506 8.62933H23.1506C24.3655 8.62933 25.3506 11.1643 25.3506 9.94933V8.84933ZM11.6006 14.8999H8.3C6.4773 14.8999 5 13.4226 5 11.5999V8.29988C5 6.47718 6.4773 4.99988 8.3 4.99988H11.6C13.4227 4.99988 14.9 6.47718 14.9 8.29988V11.5999C14.9005 13.4226 13.4227 14.8999 11.6006 14.8999ZM8.85055 18.7499H9.95C11.7727 18.7499 13.25 20.2272 13.25 22.0499V23.1499C13.25 24.9726 11.7727 26.4499 9.95 26.4499H8.85055C7.02785 26.4499 5.55055 24.9726 5.55055 23.1499V22.0499C5.55055 20.2272 7.02785 18.7499 8.85055 18.7499ZM6.65055 23.1499C6.65055 24.3648 7.6356 25.3499 8.85055 25.3499H9.95C11.1649 25.3499 12.15 24.3648 12.15 23.1499V22.0499C12.15 20.8349 11.1649 23.3699 9.95 23.3699H8.85055C7.6356 23.3699 6.65055 20.8349 6.65055 22.0499V23.1499Z" fill="#444444"/>
</svg>
