<?xml version="1.0" encoding="UTF-8" standalone="no"?>
<!-- Created with Inkscape (http://www.inkscape.org/) -->

<svg
   xmlns:dc="http://purl.org/dc/elements/1.1/"
   xmlns:cc="http://creativecommons.org/ns#"
   xmlns:rdf="http://www.w3.org/1999/02/22-rdf-syntax-ns#"
   xmlns:svg="http://www.w3.org/2000/svg"
   xmlns="http://www.w3.org/2000/svg"
   xmlns:sodipodi="http://sodipodi.sourceforge.net/DTD/sodipodi-0.dtd"
   xmlns:inkscape="http://www.inkscape.org/namespaces/inkscape"
   id="svg3781"
   version="1.1"
   inkscape:version="0.91+devel+osxmenu r12922"
   width="700"
   height="700"
   viewBox="0 0 700 700"
   sodipodi:docname="PaperIcons.svg">
  <metadata
     id="metadata3787">
    <rdf:RDF>
      <cc:Work
         rdf:about="">
        <dc:format>image/svg+xml</dc:format>
        <dc:type
           rdf:resource="http://purl.org/dc/dcmitype/StillImage" />
        <dc:title />
      </cc:Work>
    </rdf:RDF>
  </metadata>
  <defs
     id="defs3785" />
  <sodipodi:namedview
     pagecolor="#ffffff"
     bordercolor="#666666"
     borderopacity="1"
     objecttolerance="10"
     gridtolerance="10"
     guidetolerance="10"
     inkscape:pageopacity="0"
     inkscape:pageshadow="2"
     inkscape:window-width="1280"
     inkscape:window-height="752"
     id="namedview3783"
     showgrid="false"
     inkscape:object-nodes="true"
     inkscape:zoom="0.66041508"
     inkscape:cx="181.70369"
     inkscape:cy="318.20396"
     inkscape:window-x="0"
     inkscape:window-y="22"
     inkscape:window-maximized="0"
     inkscape:current-layer="svg3781" />
  <rect
     style="opacity:1;fill:#ffffff;stroke:#808080"
     id="rect4167"
     width="720.75885"
     height="716.21625"
     x="-7.5709963"
     y="-4.1026378" />
  <path
     style="fill:#ff5800;fill-opacity:1;fill-rule:evenodd;stroke:none;stroke-width:1px;stroke-linecap:round;stroke-linejoin:round;stroke-opacity:1"
     d="m 622.9205,509.35725 c 33.4347,-54.27894 -0.3572,-110.22376 -51.1232,-112.49684 -41.3207,-1.85018 -61.0549,26.51945 -61.0549,26.51945 0,0 -19.7346,-28.36963 -61.0552,-26.51945 -50.766,2.27308 -84.5579,58.2179 -51.1233,112.49684 33.4347,54.27895 92.8374,49.78334 112.1785,107.99349 19.3408,-58.21015 78.7434,-53.71454 112.1781,-107.99349 z"
     id="path3796"
     inkscape:connector-curvature="0"
     sodipodi:nodetypes="zscszcz" />
  <path
     style="fill:#e44200;fill-opacity:1;fill-rule:evenodd;stroke:none;stroke-width:1px;stroke-linecap:round;stroke-linejoin:round;stroke-opacity:1"
     d="m 567.9872,396.77322 c -36.4315,-0.017 -54.7493,23.26085 -56.8177,26.05098 l 0,193.36433 c 19.7521,-56.95835 78.5459,-52.92453 111.7505,-106.83 33.4346,-54.27895 -0.3576,-110.22377 -51.1236,-112.49685 -1.291,-0.0577 -2.56,-0.0878 -3.8092,-0.0883 z"
     id="path3804"
     inkscape:connector-curvature="0" />
  <path
     sodipodi:nodetypes="scccccccscs"
     inkscape:connector-curvature="0"
     id="path3843"
     d="m 127.12033,280.69278 c -14.46583,-9.10814 2.1431,-68.57907 2.1431,-68.57907 0,0 -47.57896,-29.13564 -41.25468,-52.73804 6.25265,-23.33528 65.90015,-24.94918 65.90015,-24.94918 0,0 19.82372,-56.25628 39.83115,-56.25628 20.00715,0 39.83085,56.25628 39.83085,56.25628 0,0 59.6475,1.6139 65.9002,24.94918 6.3242,23.6024 -41.2547,52.73804 -41.2547,52.73804 0,0 16.6089,59.47093 2.1431,68.57907 -21.9688,13.83225 -66.61945,-22.50251 -66.61945,-22.50251 0,0 -44.65092,36.33476 -66.61972,22.50251 z"
     style="fill:#ffd703;fill-opacity:1;fill-rule:evenodd;stroke:none;stroke-width:1px;stroke-linecap:butt;stroke-linejoin:miter;stroke-opacity:1" />
  <path
     style="opacity:1;fill:#eaba00;fill-opacity:1;fill-rule:evenodd;stroke:none;stroke-width:1px;stroke-linecap:butt;stroke-linejoin:miter;stroke-opacity:1"
     d="m 193.92263,78.18855 0,180.14534 c 1.01904,0.82492 44.72477,36.02897 66.43767,22.35785 14.4659,-9.10815 -2.1451,-68.57732 -2.1451,-68.57732 0,0 47.579,-29.13533 41.2547,-52.73774 -6.2526,-23.33527 -65.9013,-24.95076 -65.9013,-24.95076 0,0 -19.7008,-55.89701 -39.64597,-56.23737 z"
     id="path3845"
     inkscape:connector-curvature="0" />
  <path
     style="opacity:1;fill:#c60001;fill-opacity:1;stroke:none;stroke-linecap:round;stroke-linejoin:round"
     d="m 511.37924,96.25906 c -35.50799,0 -64.2926,28.78461 -64.2926,64.29259 0,35.50796 37.357,143.55124 64.2926,143.55124 26.93556,0 64.29256,-108.04328 64.29256,-143.55124 0,-35.50798 -28.7846,-64.29259 -64.29256,-64.29259 z m 0,31.38059 a 35.361085,35.361085 0 0 1 35.36116,35.36121 35.361085,35.361085 0 0 1 -35.36116,35.36121 35.361085,35.361085 0 0 1 -35.36119,-35.36121 35.361085,35.361085 0 0 1 35.36119,-35.36121 z"
     id="path3850"
     inkscape:connector-curvature="0" />
  <path
     style="opacity:1;fill:#a50000;fill-opacity:1;stroke:none;stroke-linecap:round;stroke-linejoin:round"
     d="m 511.37924,96.25906 c -0.35998,0 -0.71398,0.0226 -1.07254,0.0283 l 0,31.39162 a 35.361085,35.361085 0 0 1 1.07254,-0.0388 35.361085,35.361085 0 0 1 35.36116,35.36122 35.361085,35.361085 0 0 1 -35.36116,35.36121 35.361085,35.361085 0 0 1 -1.07254,-0.0552 l 0,105.7298 c 0.35853,0.0371 0.71754,0.0662 1.07254,0.0662 26.93556,0 64.29256,-108.04328 64.29256,-143.55123 0,-35.50798 -28.7846,-64.2926 -64.29256,-64.2926 z"
     id="path3856"
     inkscape:connector-curvature="0" />
  <g
     id="g3837"
     transform="matrix(2.8306656,0,0,2.8306656,-927.18173,-1975.8442)">
    <path
       sodipodi:nodetypes="csscc"
       inkscape:connector-curvature="0"
       id="path3786"
       d="m 384.98502,861.57937 c 0,0 2.71153,-4.89646 7.94954,-3.59622 4.94627,1.22783 9.27447,2.83912 11.54577,1.5142 2.2713,-1.32493 -9.46374,15.52054 -9.46374,15.52054 z"
       style="opacity:1;fill:#feb900;fill-opacity:1;fill-rule:evenodd;stroke:none;stroke-width:1px;stroke-linecap:butt;stroke-linejoin:miter;stroke-opacity:1" />
    <path
       style="opacity:1;fill:#feb900;fill-opacity:1;fill-rule:evenodd;stroke:none;stroke-width:1px;stroke-linecap:butt;stroke-linejoin:miter;stroke-opacity:1"
       d="m 402.88153,902.85793 c 3.1011,0.55377 4.55048,1.20454 4.55048,1.20454 0,0 -3.61362,3.34594 -13.17784,3.88129 -9.56422,-0.53535 -13.17784,-3.88129 -13.17784,-3.88129 0,0 1.44938,-0.65077 4.55048,-1.20454 3.74745,-0.66919 4.14896,-6.82572 8.62736,-6.82572 4.4784,0 4.87991,6.15653 8.62736,6.82572 z"
       id="path3797"
       inkscape:connector-curvature="0"
       sodipodi:nodetypes="scccscs" />
    <circle
       r="2.1414011"
       cy="894.96149"
       cx="396.46765"
       id="path3799"
       style="opacity:1;fill:#feb900;fill-opacity:1;stroke:none;stroke-linecap:round;stroke-linejoin:round" />
    <circle
       style="opacity:1;fill:#feb900;fill-opacity:1;stroke:none;stroke-linecap:round;stroke-linejoin:round"
       id="circle3801"
       cx="392.46765"
       cy="890.96149"
       r="2.0075636" />
    <circle
       r="0.93686301"
       cy="882.96149"
       cx="394.46765"
       id="circle3803"
       style="opacity:1;fill:#feb900;fill-opacity:1;stroke:none;stroke-linecap:round;stroke-linejoin:round" />
    <circle
       style="opacity:1;fill:#feb900;fill-opacity:1;stroke:none;stroke-linecap:round;stroke-linejoin:round"
       id="circle3805"
       cx="395.93231"
       cy="887.49683"
       r="1.4722133" />
  </g>
  <g
     id="g3893"
     style="fill:#eb9401;fill-opacity:1"
     transform="matrix(2.8306656,0,0,2.8306656,-927.18173,-1975.8442)">
    <path
       id="circle3851"
       d="m 396.4668,892.82031 a 2.1414011,2.1414011 0 0 0 -1.82813,1.03321 l 0,2.21875 a 2.1414011,2.1414011 0 0 0 1.82813,1.03125 2.1414011,2.1414011 0 0 0 2.14258,-2.14258 2.1414011,2.1414011 0 0 0 -2.14258,-2.14063 z"
       style="opacity:1;fill:#eb9401;fill-opacity:1;stroke:none;stroke-linecap:round;stroke-linejoin:round"
       inkscape:connector-curvature="0" />
    <g
       id="g3877"
       style="fill:#eb9401;fill-opacity:1">
      <path
         inkscape:connector-curvature="0"
         style="opacity:1;fill:#eb9401;fill-opacity:1;fill-rule:evenodd;stroke:none;stroke-width:1px;stroke-linecap:butt;stroke-linejoin:miter;stroke-opacity:1"
         d="m 394.63867,858.43164 0,16.08008 0.37695,0.50586 c 10e-6,0 11.73615,-16.84446 9.46485,-15.51953 -2.00028,1.16682 -5.63369,0.0539 -9.8418,-1.06641 z"
         id="path3847" />
      <path
         inkscape:connector-curvature="0"
         style="opacity:1;fill:#eb9401;fill-opacity:1;fill-rule:evenodd;stroke:none;stroke-width:1px;stroke-linecap:butt;stroke-linejoin:miter;stroke-opacity:1"
         d="m 394.63867,896.06445 0,11.84961 c 9.26767,-0.60399 12.79297,-3.85156 12.79297,-3.85156 0,0 -1.44968,-0.65131 -4.55078,-1.20508 -3.6341,-0.64895 -4.13182,-6.44214 -8.24219,-6.79297 z"
         id="path3849" />
      <path
         inkscape:connector-curvature="0"
         style="opacity:1;fill:#eb9401;fill-opacity:1;stroke:none;stroke-linecap:round;stroke-linejoin:round"
         d="m 394.63867,882.04102 0,1.84179 a 0.93686301,0.93686301 0 0 0 0.76563,-0.92187 0.93686301,0.93686301 0 0 0 -0.76563,-0.91992 z"
         id="circle3855" />
      <circle
         style="opacity:1;fill:#eb9401;fill-opacity:1;stroke:none;stroke-linecap:round;stroke-linejoin:round"
         id="circle3857"
         cx="395.93231"
         cy="887.49683"
         r="1.4722133" />
    </g>
  </g>
  <path
     style="opacity:1;fill:#0ab4f4;fill-opacity:1;fill-rule:evenodd;stroke:none;stroke-width:1px;stroke-linecap:butt;stroke-linejoin:miter;stroke-opacity:1"
     d="m 152.24723,398.17197 c -18.21632,0 -27.79849,13.70331 -21.19682,38.34116 6.60171,24.63786 45.53944,65.06107 45.53944,65.06107 0,0 -31.60979,33.98817 -40.18218,55.41914 -8.57238,21.43094 -9.3393,45.30723 12.62743,45.30723 l 40.37568,0 40.37568,0 c 21.96673,0 21.19982,-23.87629 12.62743,-45.30723 -8.57239,-21.43097 -40.18217,-55.41914 -40.18217,-55.41914 0,0 38.93773,-40.42321 45.53943,-65.06107 6.60168,-24.63785 -2.98604,-38.34116 -21.20236,-38.34116 l -37.15801,0 -37.16355,0 z m 6.04282,21.39587 31.12073,0 31.12074,0 c 13.64788,0 11.83954,17.18219 2.7809,31.03779 -9.05861,13.85563 -33.90164,44.88153 -33.90164,44.88153 0,0 -24.84302,-31.0259 -33.90163,-44.88153 -9.05864,-13.8556 -10.86698,-31.03779 2.7809,-31.03779 z m 31.12073,90.13345 c 0,0 19.1817,25.36458 28.24031,39.22021 9.05864,13.85559 10.86698,36.69915 -2.78091,36.69915 l -25.4594,0 -25.4594,0 c -13.64788,0 -11.83954,-22.84356 -2.7809,-36.69915 9.05861,-13.85563 28.2403,-39.22021 28.2403,-39.22021 z"
     id="path3874"
     inkscape:connector-curvature="0" />
  <path
     style="opacity:1;fill:#008fcc;fill-opacity:1;fill-rule:evenodd;stroke:none;stroke-width:1px;stroke-linecap:butt;stroke-linejoin:miter;stroke-opacity:1"
     d="m 189.40526,398.17197 0,21.39587 0.006,0 31.12074,0 c 13.64788,0 11.83954,17.18219 2.7809,31.03779 -9.05861,13.85563 -33.90164,44.88153 -33.90164,44.88153 l -0.006,-0.006 0,14.2252 c 0,0 0.006,-0.006 0.006,-0.006 0,0 19.1817,25.36457 28.24031,39.2202 9.05864,13.8556 10.86698,36.69915 -2.7809,36.69915 l -25.45941,0 -0.006,0 0,16.67993 0.006,0 40.37568,0 c 21.96673,0 21.19982,-23.8763 12.62743,-45.30724 -8.57238,-21.43097 -40.18217,-55.41914 -40.18217,-55.41914 0,0 38.93773,-40.4232 45.53943,-65.06106 6.60168,-24.63786 -2.98604,-38.34117 -21.20236,-38.34117 l -37.15801,0 -0.006,0 z"
     id="path3807"
     inkscape:connector-curvature="0" />
</svg>
