<?xml version="1.0" encoding="UTF-8" standalone="no"?>
<!-- Generator: Adobe Illustrator 18.0.0, SVG Export Plug-In . SVG Version: 6.00 Build 0)  -->

<svg
   xmlns:dc="http://purl.org/dc/elements/1.1/"
   xmlns:cc="http://creativecommons.org/ns#"
   xmlns:rdf="http://www.w3.org/1999/02/22-rdf-syntax-ns#"
   xmlns:svg="http://www.w3.org/2000/svg"
   xmlns="http://www.w3.org/2000/svg"
   xmlns:sodipodi="http://sodipodi.sourceforge.net/DTD/sodipodi-0.dtd"
   xmlns:inkscape="http://www.inkscape.org/namespaces/inkscape"
   version="1.1"
   id="Capa_1"
   x="0px"
   y="0px"
   viewBox="0 0 54 54"
   style="enable-background:new 0 0 54 54;"
   xml:space="preserve"
   inkscape:version="0.91+devel+osxmenu r12922"
   sodipodi:docname="arrow-right.svg"><metadata
     id="metadata4186"><rdf:RDF><cc:Work
         rdf:about=""><dc:format>image/svg+xml</dc:format><dc:type
           rdf:resource="http://purl.org/dc/dcmitype/StillImage" /><dc:title /></cc:Work></rdf:RDF></metadata><defs
     id="defs4184" /><sodipodi:namedview
     pagecolor="#ffffff"
     bordercolor="#666666"
     borderopacity="1"
     objecttolerance="10"
     gridtolerance="10"
     guidetolerance="10"
     inkscape:pageopacity="0"
     inkscape:pageshadow="2"
     inkscape:window-width="1280"
     inkscape:window-height="752"
     id="namedview4182"
     showgrid="false"
     inkscape:zoom="4.3703704"
     inkscape:cx="-9.6101692"
     inkscape:cy="27"
     inkscape:window-x="0"
     inkscape:window-y="22"
     inkscape:window-maximized="0"
     inkscape:current-layer="g4144" /><g
     id="g4142"
     transform="rotate(-90,27,27)"><g
       id="g4144"><path
         style="opacity:1;fill:#808080;stroke:#808080"
         d="m 1,27 0,0 C 1,12.641 12.641,1 27,1 l 0,0 c 14.359,0 26,11.641 26,26 l 0,0 C 53,41.359 41.359,53 27,53 l 0,0 C 12.641,53 1,41.359 1,27 Z"
         id="path4146"
         inkscape:connector-curvature="0" /></g><path
       style="fill:#ffffff"
       d="m 15,21.294 c 0.256,0 0.512,0.098 0.707,0.293 L 27,32.88 38.293,21.587 c 0.391,-0.391 1.023,-0.391 1.414,0 0.391,0.391 0.391,1.023 0,1.414 L 28.209,34.499 c -0.666,0.666 -1.752,0.666 -2.418,0 L 14.293,23.001 c -0.391,-0.391 -0.391,-1.023 0,-1.414 0.195,-0.195 0.451,-0.293 0.707,-0.293 z"
       id="path4150"
       inkscape:connector-curvature="0" /></g><g
     id="g4152" /><g
     id="g4154" /><g
     id="g4156" /><g
     id="g4158" /><g
     id="g4160" /><g
     id="g4162" /><g
     id="g4164" /><g
     id="g4166" /><g
     id="g4168" /><g
     id="g4170" /><g
     id="g4172" /><g
     id="g4174" /><g
     id="g4176" /><g
     id="g4178" /><g
     id="g4180" /></svg>